<?xml version="1.0" encoding="utf-8"?>
<svg width="126px" height="24px" viewBox="0 0 126 24" version="1.1" xmlns:xlink="http://www.w3.org/1999/xlink" xmlns="http://www.w3.org/2000/svg">
  <desc>Created with Lunacy</desc>
  <g id="HTML-ACADEMY" fill="#FFFFFF">
    <path d="M68.1543 16.4912Q67.0674 17.0654 65.4473 17.0654Q63.3555 17.0654 62.0977 15.7188Q60.8398 14.3721 60.8398 12.1846Q60.8398 9.83301 62.2549 8.38379Q63.6699 6.93457 65.8438 6.93457Q67.2383 6.93457 68.1543 7.33789L68.1543 8.56152Q67.1016 7.97363 65.8301 7.97363Q64.1416 7.97363 63.0923 9.10156Q62.043 10.2295 62.043 12.1162Q62.043 13.9072 63.0239 14.9702Q64.0049 16.0332 65.5977 16.0332Q67.0742 16.0332 68.1543 15.377L68.1543 16.4912ZM19.5508 16.9014L18.4023 16.9014L18.4023 12.4307L13.3301 12.4307L13.3301 16.9014L12.1816 16.9014L12.1816 7.09863L13.3301 7.09863L13.3301 11.3984L18.4023 11.3984L18.4023 7.09863L19.5508 7.09863L19.5508 16.9014ZM27.918 8.1377L25.0879 8.1377L25.0879 16.9014L23.9395 16.9014L23.9395 8.1377L21.1162 8.1377L21.1162 7.09863L27.918 7.09863L27.918 8.1377ZM38.3086 16.9014L39.4502 16.9014L39.4502 7.09863L38.0146 7.09863L34.9453 13.9072Q34.7676 14.3037 34.4736 15.1104L34.4326 15.1104Q34.3301 14.7207 33.9814 13.9346L30.9736 7.09863L29.4561 7.09863L29.4561 16.9014L30.5635 16.9014L30.5635 10.3389Q30.5635 9.00586 30.5088 8.41797L30.5361 8.41797Q30.6865 9.09473 30.8301 9.42285L34.1729 16.9014L34.7334 16.9014L38.083 9.36816Q38.2129 9.08106 38.377 8.41797L38.4043 8.41797Q38.3086 9.5459 38.3086 10.3252L38.3086 16.9014ZM47.1133 16.9014L42.0273 16.9014L42.0273 7.09863L43.1758 7.09863L43.1758 15.8623L47.1133 15.8623L47.1133 16.9014ZM58.7686 16.9014L60.04 16.9014L56.2666 7.09863L55.0771 7.09863L51.3174 16.9014L52.5957 16.9014L53.5732 14.1533L57.7295 14.1533L58.7686 16.9014ZM76.4668 16.9014L77.7383 16.9014L73.9648 7.09863L72.7754 7.09863L69.0156 16.9014L70.2939 16.9014L71.2715 14.1533L75.4277 14.1533L76.4668 16.9014ZM79.1807 16.9014L79.1807 7.09863L81.8877 7.09863Q87.0693 7.09863 87.0693 11.877Q87.0693 14.1465 85.6304 15.5239Q84.1914 16.9014 81.7783 16.9014L79.1807 16.9014ZM88.9971 16.9014L94.1924 16.9014L94.1924 15.8623L90.1455 15.8623L90.1455 12.4307L93.6865 12.4307L93.6865 11.3984L90.1455 11.3984L90.1455 8.1377L93.9736 8.1377L93.9736 7.09863L88.9971 7.09863L88.9971 16.9014ZM106.073 16.9014L104.932 16.9014L104.932 10.3252Q104.932 9.5459 105.027 8.41797L105 8.41797Q104.836 9.08106 104.706 9.36816L101.356 16.9014L100.796 16.9014L97.4531 9.42285Q97.3096 9.09473 97.1592 8.41797L97.1318 8.41797Q97.1865 9.00586 97.1865 10.3389L97.1865 16.9014L96.0791 16.9014L96.0791 7.09863L97.5967 7.09863L100.604 13.9346Q100.953 14.7207 101.056 15.1104L101.097 15.1104Q101.391 14.3037 101.568 13.9072L104.638 7.09863L106.073 7.09863L106.073 16.9014ZM111.788 13.2783L115.021 7.09863L113.805 7.09863L111.508 11.5283Q111.316 11.8975 111.248 12.1299L111.228 12.1299Q111.029 11.6104 110.988 11.5283L108.794 7.09863L107.488 7.09863L110.64 13.3057L110.64 16.9014L111.788 16.9014L111.788 13.2783ZM80.3291 8.1377L80.3291 15.8623L81.792 15.8623Q83.7197 15.8623 84.793 14.8301Q85.8662 13.7979 85.8662 11.9043Q85.8662 8.1377 81.8604 8.1377L80.3291 8.1377ZM55.8154 8.94434L57.3535 13.1211L53.9561 13.1211L55.4805 8.94434Q55.5693 8.70508 55.6377 8.28809L55.665 8.28809Q55.7402 8.73926 55.8154 8.94434ZM73.5137 8.94434L75.0518 13.1211L71.6543 13.1211L73.1787 8.94434Q73.2676 8.70508 73.3359 8.28809L73.3633 8.28809Q73.4385 8.73926 73.5137 8.94434Z" />
  </g>
</svg>