<?xml version="1.0" encoding="utf-8"?>
<svg width="20px" height="20px" viewBox="0 0 20 20" version="1.1" xmlns:xlink="http://www.w3.org/1999/xlink" xmlns="http://www.w3.org/2000/svg">
  <desc>Created with Lunacy</desc>
  <g id="instagram">
    <g id="instagram">
      <path d="M2 0L18 0C19.1046 0 20 0.895431 20 2L20 18C20 19.1046 19.1046 20 18 20L2 20C0.895431 20 0 19.1046 0 18L0 2C0 0.895431 0.895431 0 2 0ZM17.8634 4.86337C17.9591 4.76759 18.0089 4.63515 18 4.5L18 2.5C18.0089 2.36485 17.9591 2.23241 17.8634 2.13663C17.7676 2.04086 17.6352 1.99106 17.5 2L15.5 2C15.3648 1.99106 15.2324 2.04086 15.1366 2.13663C15.0409 2.23241 14.9911 2.36485 15 2.5L15 4.5C14.9911 4.63515 15.0409 4.76759 15.1366 4.86337C15.2324 4.95914 15.3648 5.00894 15.5 5L17.5 5C17.6352 5.00894 17.7676 4.95914 17.8634 4.86337ZM14 10C14 7.79086 12.2091 6 10 6C7.79086 6 6 7.79086 6 10C6 12.2091 7.79086 14 10 14C12.2091 14 14 12.2091 14 10ZM2.5 18C2.36485 18.0089 2.23241 17.9591 2.13663 17.8634C2.04086 17.7676 1.99106 17.6352 2 17.5L2 9L4.1 9C4.01731 9.32654 3.98361 9.66355 4 10C4 12.1436 5.14359 14.1244 7 15.1962C8.85641 16.268 11.1436 16.268 13 15.1962C14.8564 14.1244 16 12.1436 16 10C16.0164 9.66355 15.9827 9.32654 15.9 9L18 9L18 17.5C18.0089 17.6352 17.9591 17.7676 17.8634 17.8634C17.7676 17.9591 17.6352 18.0089 17.5 18L2.5 18Z" id="Shape" fill="#FFFFFF" fill-rule="evenodd" stroke="none" />
    </g>
  </g>
</svg>