<?xml version="1.0" encoding="utf-8"?>
<svg width="112px" height="24px" viewBox="0 0 112 24" version="1.1" xmlns:xlink="http://www.w3.org/1999/xlink" xmlns="http://www.w3.org/2000/svg">
  <desc>Created with Lunacy</desc>
  <g id="logo-small">
    <g id="logo-small">
      <path d="M13.8831 7.88C18.8831 6.21 19.2231 0 14.3331 0C12.5685 0.181938 11.028 1.27468 10.2731 2.88L3.67307 14.3C3.39899 14.7973 3.08107 15.2692 2.72307 15.71C1.89405 14.5728 1.55731 13.1499 1.78867 11.7618C2.02003 10.3736 2.80004 9.13687 3.95307 8.33L2.95307 7.08C-2.18693 10.36 -0.676934 19.83 7.95307 19.83C15.2131 19.83 18.6131 11.02 13.8831 7.88ZM12.4631 3.31L10.4631 6.71C12.9531 6.71 14.3631 6.16 15.3131 4.31C16.5431 2.04 14.2531 0.22 12.4631 3.31ZM7.82307 17.94C6.58905 17.971 5.36847 17.6779 4.28307 17.09C4.74147 16.5422 5.15293 15.9568 5.51307 15.34L9.64307 8.19L10.3031 8.26C16.0631 9.47 13.7731 17.94 7.82307 17.94Z" transform="translate(0.04693373 0.29)" id="Shape" fill="#FFFFFF" fill-rule="evenodd" stroke="none" />
      <path d="M94.0044 12.06L94.1744 11.87C94.6113 12.016 94.9598 12.3499 95.1244 12.78C93.1144 15.11 90.7744 17.24 87.2144 17.31L87.0744 17.31C85.8189 17.3594 84.6988 16.5266 84.3844 15.31L85.7744 14.65C85.9473 14.9786 86.2881 15.1844 86.6594 15.1844C87.0308 15.1844 87.3716 14.9786 87.5444 14.65L91.2544 8.23C91.8944 7.12 90.1744 5.75 87.4344 9.48L80.0944 22.25L77.6244 22.25L82.0944 14.5C81.25 14.8741 80.338 15.0715 79.4144 15.08L78.8744 15.08C76.2144 18.44 71.8744 17.83 71.8744 14.7C70.3544 16.16 68.7844 17.23 67.3544 17.23C65.3744 17.23 64.6744 15.55 65.6744 13.74L68.8644 8.19C69.9344 6.37 68.2544 5.76 64.4744 10.5L60.7344 17.03L58.2544 17.03L59.0944 15.56C57.9926 16.4174 56.6987 16.9939 55.3244 17.24L55.2544 17.24C55.0279 17.2516 54.801 17.2516 54.5744 17.24C53.3225 17.2846 52.208 16.4528 51.8944 15.24L53.4244 14.44C53.6041 14.9394 54.0561 15.29 54.5844 15.34C56.9144 15.34 56.3644 10.76 57.3644 8.21C56.4944 9.36 55.2644 11.09 53.8744 12.69C51.8344 15.05 49.4644 17.22 47.4744 17.22C45.4844 17.22 44.7944 15.55 45.7944 13.73L48.3944 9.22C48.647 8.7738 48.5909 8.21688 48.2544 7.83L47.9244 7.43C45.9644 10.09 45.0444 11.32 43.8644 12.69C41.8344 15.05 39.0744 17.22 36.2844 17.22C34.1144 17.22 32.8244 15.87 32.9544 14.1C31.9635 14.6896 30.8455 15.0325 29.6944 15.1C29.5146 15.1117 29.3343 15.1117 29.1544 15.1C28.1885 16.4667 26.6462 17.3116 24.9744 17.39C24.241 17.4616 23.5119 17.2161 22.9712 16.7154C22.4304 16.2148 22.1295 15.5068 22.1444 14.77C20.6344 16.22 19.0644 17.29 17.6344 17.29C15.6444 17.29 14.9544 15.62 15.9544 13.8L18.5544 9.29C18.807 8.8438 18.7509 8.28688 18.4144 7.9L18.0944 7.5C16.0944 10.12 15.2244 11.35 14.0644 12.72C12.0244 15.08 9.66444 17.25 7.66444 17.25C6.63683 17.3871 5.68903 16.6751 5.53444 15.65C4.60166 16.5336 3.40986 17.0945 2.13444 17.25C0.144442 17.25 -0.545558 15.58 0.454442 13.76L3.89444 7.81C4.74451 6.23397 6.31454 5.17607 8.09444 4.98C9.49892 4.96889 10.648 6.09557 10.6644 7.5L12.0944 7.5L8.12444 14.4C7.55444 15.36 7.86444 15.74 8.40444 15.74C9.49444 15.74 11.2144 14.11 12.9844 12.06L13.1544 11.87C14.7544 9.98 16.2144 7.9 17.3044 6.37L17.0944 6.09C16.1844 4.95 16.3044 3.56 17.6944 2.31L18.9644 3.7C18.7555 3.86834 18.6229 4.11359 18.5966 4.38064C18.5703 4.64768 18.6524 4.9141 18.8244 5.12L20.2044 6.77C21.1526 7.62865 21.3034 9.06298 20.5544 10.1L18.1044 14.4C17.5344 15.36 17.8444 15.74 18.3844 15.74C19.4744 15.74 21.1944 14.11 22.9644 12.06L23.0944 11.91L29.9644 0L32.4644 0L29.3444 5.41C29.8113 5.07306 30.3689 4.88486 30.9444 4.87C31.5397 4.8352 32.1217 5.05508 32.5452 5.47479C32.9687 5.8945 33.1939 6.47446 33.1644 7.07C33.097 8.06875 32.7807 9.03474 32.2444 9.88L29.9344 13.88C31.3682 13.8072 32.7093 13.1493 33.6444 12.06L33.7944 11.89L36.1344 7.78C37.0175 6.05032 38.7924 4.95839 40.7344 4.95C42.7344 4.95 44.0544 6.68 42.7344 8.95L42.3844 9.56C40.5444 12.74 37.5644 13.05 35.9844 12.39L35.7444 12.81C34.6144 14.8 35.5144 15.74 37.0244 15.74C38.7844 15.74 41.0144 14.11 42.7844 12.06L42.9544 11.87C44.5544 9.98 46.0144 7.9 47.1044 6.37L46.8944 6.09C46.0144 4.95 46.0944 3.56 47.5344 2.31L48.8044 3.7C48.5955 3.86834 48.4629 4.11359 48.4366 4.38064C48.4103 4.64768 48.4924 4.9141 48.6644 5.12L50.0044 6.75C50.9526 7.60865 51.1034 9.04298 50.3544 10.08L47.8944 14.38C47.3244 15.34 47.6344 15.72 48.1744 15.72C49.2644 15.72 50.9844 14.09 52.7544 12.04L52.9244 11.85C55.1444 9.25 57.3744 6.04 58.3744 4.65L60.2244 5.65C58.7144 8.8 58.8744 12.38 58.0944 14.72C59.2034 13.9683 60.2087 13.0739 61.0844 12.06L61.2244 11.9L68.0944 0.03L70.5044 0.03L66.5844 6.85C67.4245 5.78968 68.6584 5.11501 70.0044 4.98C71.3244 4.98 72.3844 6.32 71.3244 8.19L67.7844 14.4C67.2144 15.36 67.5244 15.74 68.0644 15.74C69.1544 15.74 70.8744 14.11 72.6444 12.06L72.7744 11.91L73.7744 10.19L74.9744 8.09C76.3944 5.64 77.8544 4.88 79.7444 4.88C82.0644 4.88 83.4344 7.31 81.9444 9.88L79.6244 13.88C81.0567 13.8014 82.3957 13.1446 83.3344 12.06L83.5044 11.87L87.3444 5.21L89.8044 5.21L89.3044 6.06C91.8044 3.82 95.5144 5.12 93.2244 9.01L90.5144 13.66C90.2244 14.18 89.9144 14.86 89.5144 15.5C91.2731 14.7432 92.816 13.5611 94.0044 12.06ZM78.1644 12.03L78.2844 12.03L80.1144 8.94C81.5944 6.39 79.2344 5.23 77.5144 8.16L76.3344 10.16L74.4644 13.39C72.9644 15.93 75.8044 16.33 76.9644 14.33C76.8108 14.0802 76.7278 13.7933 76.7244 13.5C76.7191 13.1137 76.8681 12.7413 77.1385 12.4653C77.4088 12.1893 77.7781 12.0326 78.1644 12.03ZM27.8644 13.26C27.1908 12.726 26.818 11.8984 26.8644 11.04C26.8644 9.29 28.5644 6.44 29.9544 6.44C30.2172 6.45181 30.463 6.57317 30.6322 6.77461C30.8013 6.97606 30.8783 7.23915 30.8444 7.5C30.8169 8.01917 30.655 8.52228 30.3744 8.96L27.8644 13.26ZM40.7244 8.94C42.1944 6.42 39.6944 5.99 38.2744 8.42L36.6944 11.18C37.6144 11.55 39.1944 11.55 40.3744 9.55L40.7244 8.94ZM6.81444 12.29C5.32444 14.63 3.81444 15.74 2.81444 15.74C2.27444 15.74 1.96444 15.36 2.53444 14.4L5.95444 8.4C7.27444 6.11 9.89444 6.7 8.69444 8.92L6.81444 12.29ZM24.584 15.3938C24.775 15.5733 25.0334 15.6629 25.2944 15.64C26.0667 15.5969 26.7656 15.1686 27.1544 14.5C26.283 13.9087 25.7132 12.9664 25.5944 11.92L24.7244 13.43C24.4789 13.8116 24.3312 14.2478 24.2944 14.7C24.2877 14.962 24.3931 15.2144 24.584 15.3938Z" transform="translate(15.90556 1.5)" id="Shape" fill="#FFFFFF" fill-rule="evenodd" stroke="none" />
    </g>
  </g>
</svg>