<?xml version="1.0" encoding="utf-8"?>
<svg width="28px" height="16px" viewBox="0 0 28 16" version="1.1" xmlns:xlink="http://www.w3.org/1999/xlink" xmlns="http://www.w3.org/2000/svg">
  <desc>Created with Lunacy</desc>
  <g id="vk">
    <g id="vk">
      <path d="M26.014 13.5028L25.924 13.3328C25.2093 12.2106 24.3332 11.1998 23.324 10.3328C22.744 9.77952 22.3773 9.40618 22.224 9.21285C21.8999 8.90968 21.8144 8.42921 22.014 8.03285C22.357 7.39832 22.7659 6.80169 23.234 6.25285L24.114 5.09285C25.6806 3.00618 26.3473 1.67285 26.114 1.09285L26.014 0.972849C25.9048 0.862222 25.7658 0.785776 25.614 0.752849C25.327 0.693278 25.0309 0.693278 24.744 0.752849L20.824 0.752849C20.7356 0.728593 20.6423 0.728593 20.554 0.752849L20.254 0.752849C20.1963 0.790556 20.1456 0.837916 20.104 0.892849C20.0455 0.965387 19.9984 1.04629 19.964 1.13285C19.5559 2.18854 19.0679 3.21152 18.504 4.19285C18.1706 4.75285 17.8606 5.23952 17.574 5.65285C17.3628 5.97521 17.1253 6.27958 16.864 6.56285C16.702 6.73163 16.5282 6.88869 16.344 7.03285C16.1906 7.15285 16.074 7.20285 15.994 7.18285L15.764 7.13285C15.6342 7.05106 15.5275 6.93747 15.454 6.80285C15.368 6.63773 15.3137 6.45796 15.294 6.27285L15.294 1.63285C15.3144 1.42669 15.3144 1.21901 15.294 1.01285C15.2635 0.861522 15.2165 0.713981 15.154 0.572849C15.0961 0.437075 14.9985 0.322018 14.874 0.242849C14.7311 0.158952 14.5758 0.0982004 14.414 0.0628487C13.8066 -0.00931145 13.1934 -0.0193634 12.584 0.0328487C11.4896 -0.0579213 10.3878 0.0539501 9.33397 0.362849C9.13715 0.466757 8.96093 0.605698 8.81397 0.772849C8.64731 0.972849 8.62397 1.08285 8.74397 1.10285C9.19451 1.13456 9.613 1.34741 9.90397 1.69285L9.98397 1.85285C10.0737 2.05395 10.1376 2.26565 10.174 2.48285C10.2405 2.81246 10.2806 3.14685 10.294 3.48285C10.3395 4.0486 10.3395 4.6171 10.294 5.18285C10.2473 5.65618 10.204 6.02285 10.164 6.28285C10.1366 6.50404 10.0759 6.71981 9.98397 6.92285C9.93702 7.02612 9.88358 7.12632 9.82397 7.22285L9.75397 7.29285C9.63618 7.3394 9.51062 7.36316 9.38397 7.36285C9.21526 7.34624 9.05523 7.28014 8.92397 7.17285C8.71762 7.022 8.52967 6.84747 8.36397 6.65285C8.11904 6.36132 7.89831 6.05028 7.70397 5.72285C7.4573 5.32285 7.20397 4.84952 6.94397 4.30285L6.72397 3.91285C6.59064 3.65952 6.40397 3.28952 6.16397 2.80285C5.92397 2.31618 5.71731 1.83952 5.54397 1.37285C5.48258 1.19534 5.36719 1.04149 5.21397 0.932849L5.14397 0.932849C5.07888 0.869021 5.00475 0.815111 4.92397 0.772849C4.82434 0.731325 4.72035 0.701135 4.61397 0.682849L0.883972 0.712849C0.602072 0.686607 0.322261 0.781089 0.113972 0.972849L0.0139718 1.03285C-0.00465728 1.105 -0.00465728 1.1807 0.0139718 1.25285C0.0186472 1.37993 0.0457298 1.50519 0.0939718 1.62285C0.640638 2.91618 1.23397 4.15618 1.87397 5.34285C2.51397 6.52952 3.06731 7.48618 3.53397 8.21285C4.00731 8.93952 4.50064 9.62618 5.01397 10.2728C5.52731 10.9195 5.86064 11.3328 6.01397 11.5128L6.38397 11.9228L6.72397 12.2528C7.0363 12.5387 7.37067 12.7995 7.72397 13.0328C8.17505 13.3564 8.64232 13.6568 9.12397 13.9328C9.68763 14.2479 10.2891 14.4899 10.914 14.6528C11.5642 14.8348 12.2398 14.9091 12.914 14.8728L14.484 14.8728C14.753 14.866 15.0097 14.759 15.204 14.5728L15.254 14.5028C15.2997 14.425 15.3334 14.3407 15.354 14.2528C15.3706 14.1301 15.3706 14.0056 15.354 13.8828C15.3426 13.5305 15.3728 13.1781 15.444 12.8328C15.4883 12.5869 15.5656 12.3481 15.674 12.1228C15.7511 11.9764 15.8488 11.8417 15.964 11.7228C16.0317 11.6466 16.109 11.5794 16.194 11.5228L16.304 11.5228C16.5795 11.4623 16.8673 11.5408 17.074 11.7328C17.383 11.9599 17.6619 12.2254 17.904 12.5228C18.164 12.8362 18.474 13.1862 18.834 13.5728C19.1363 13.8966 19.4715 14.1882 19.834 14.4428L20.104 14.6028C20.3281 14.7302 20.5664 14.8308 20.814 14.9028C21.0573 14.99 21.3188 15.0141 21.574 14.9728L25.054 14.9228C25.3309 14.9374 25.6068 14.8787 25.854 14.7528C26.0104 14.6774 26.132 14.5451 26.194 14.3828C26.2276 14.2314 26.2276 14.0743 26.194 13.9228C26.1739 13.7996 26.1404 13.6788 26.094 13.5628L26.014 13.5028Z" transform="translate(0.9860282 0.9671513)" id="Shape" fill="#FFFFFF" stroke="none" />
    </g>
  </g>
</svg>